<?xml version="1.0" encoding="UTF-8" standalone="no"?>
<!-- Created with Inkscape (http://www.inkscape.org/) -->

<svg
   xmlns:dc="http://purl.org/dc/elements/1.1/"
   xmlns:cc="http://creativecommons.org/ns#"
   xmlns:rdf="http://www.w3.org/1999/02/22-rdf-syntax-ns#"
   xmlns:svg="http://www.w3.org/2000/svg"
   xmlns="http://www.w3.org/2000/svg"
   xmlns:sodipodi="http://sodipodi.sourceforge.net/DTD/sodipodi-0.dtd"
   xmlns:inkscape="http://www.inkscape.org/namespaces/inkscape"
   width="32"
   height="32"
   viewBox="0 0 32 32.000001"
   id="svg4152"
   version="1.1"
   inkscape:version="0.91 r13725"
   sodipodi:docname="testplugin.svg"
   inkscape:export-filename="/home/jon/opencpn/windvane/data/windvane.png"
   inkscape:export-xdpi="90.352943"
   inkscape:export-ydpi="90.352943">
  <defs
     id="defs4154" />
  <sodipodi:namedview
     id="base"
     pagecolor="#ffffff"
     bordercolor="#666666"
     borderopacity="1.0"
     inkscape:pageopacity="0.0"
     inkscape:pageshadow="2"
     inkscape:zoom="11.2"
     inkscape:cx="14.424965"
     inkscape:cy="28.155679"
     inkscape:document-units="px"
     inkscape:current-layer="layer1"
     showgrid="false"
     units="px"
     fit-margin-top="0"
     fit-margin-left="0"
     fit-margin-right="0"
     fit-margin-bottom="0"
     showguides="true"
     inkscape:guide-bbox="true"
     inkscape:window-width="1920"
     inkscape:window-height="1053"
     inkscape:window-x="0"
     inkscape:window-y="0"
     inkscape:window-maximized="1" />
  <metadata
     id="metadata4157">
    <rdf:RDF>
      <cc:Work
         rdf:about="">
        <dc:format>image/svg+xml</dc:format>
        <dc:type
           rdf:resource="http://purl.org/dc/dcmitype/StillImage" />
        <dc:title />
      </cc:Work>
    </rdf:RDF>
  </metadata>
  <g
     inkscape:label="Layer 1"
     inkscape:groupmode="layer"
     id="layer1"
     transform="translate(-2.8571429,-1020.3623)">
    <rect
       style="opacity:1;fill:#00ffff;fill-opacity:1;stroke:none;stroke-width:1;stroke-miterlimit:4;stroke-dasharray:none;stroke-opacity:1"
       id="rect4702"
       width="32.05357"
       height="31.875"
       x="2.8571429"
       y="1020.398" />
    <g
       style="font-style:normal;font-variant:normal;font-weight:normal;font-stretch:normal;font-size:14.76987839px;line-height:125%;font-family:serif;-inkscape-font-specification:'serif, Normal';text-align:start;letter-spacing:0px;word-spacing:0px;writing-mode:lr-tb;text-anchor:start;fill:#000000;fill-opacity:1;stroke:none;stroke-width:1px;stroke-linecap:butt;stroke-linejoin:miter;stroke-opacity:1"
       id="text4146">
      <path
         d="m 17.001768,1033.7727 0,-0.7645 1.377464,0 0,-9.1446 -3.166004,0 0,1.6804 -0.887058,0 0,-2.5386 9.562919,0 0,2.5386 -0.887058,0 0,-1.6804 -3.166004,0 0,9.1446 1.377464,0 0,0.7645 -4.211723,0 z"
         style=""
         id="path5361" />
    </g>
    <g
       style="font-style:normal;font-variant:normal;font-weight:normal;font-stretch:normal;font-size:14.99520588px;line-height:125%;font-family:serif;-inkscape-font-specification:'serif, Normal';text-align:start;letter-spacing:0px;word-spacing:0px;writing-mode:lr-tb;text-anchor:start;fill:#000000;fill-opacity:1;stroke:none;stroke-width:1px;stroke-linecap:butt;stroke-linejoin:miter;stroke-opacity:1"
       id="text4150">
      <path
         d="m 18.395077,1044.3688 1.932975,0 q 1.09096,0 1.662067,-0.5857 0.571106,-0.5931 0.571106,-1.706 0,-1.1203 -0.571106,-1.706 -0.571107,-0.5858 -1.662067,-0.5858 l -1.932975,0 0,4.5835 z m -2.877498,5.5647 0,-0.7761 1.391157,0 0,-9.3721 -1.391157,0 0,-0.7834 5.169246,0 q 1.6401,0 2.599266,0.8347 0.959166,0.8274 0.959166,2.2405 0,1.4058 -0.959166,2.2405 -0.959166,0.8347 -2.599266,0.8347 l -2.291748,0 0,4.0051 1.691354,0 0,0.7761 -4.568852,0 z"
         style=""
         id="path5364" />
    </g>
  </g>
</svg>
